<svg id="SvgjsSvg1060" width="256" height="256" xmlns="http://www.w3.org/2000/svg" version="1.1" xmlns:xlink="http://www.w3.org/1999/xlink" xmlns:svgjs="http://svgjs.com/svgjs"><defs id="SvgjsDefs1061"></defs><g id="SvgjsG1062"><svg xmlns="http://www.w3.org/2000/svg" enable-background="new 0 0 503.999 482.489" viewBox="0 0 503.999 482.489" width="256" height="256"><path fill="#f7b6ad" d="M499.103,218.298c-7.22-22.23-60.41-30.68-60.41-30.68s38.07-38.09,30.84-60.32
			c-6.27-19.31-54.98-39.57-106.4-31.99l-85.03,137.47l-3.29,35.54c13.979,43.551,123.427,105.069,157.01,38.39
			C477.883,282.628,505.383,237.598,499.103,218.298z" class="colorf7b6ad svgShape"></path><path fill="#ea728c" d="M431.823 306.708c-6.98 3.66-14.38 6.83-22.16 9.36-58.45 18.99-133.16-46.27-134.85-47.75l-34.82 7.87c-60.189 49.445-52.01 140.68 12.01 161.18 37.14 36.37 88.45 48.6 104.87 36.67 18.91-13.74 10.51-66.94 10.51-66.94s47.99 24.44 66.9 10.7C450.713 405.858 454.923 353.278 431.823 306.708zM363.133 95.308c-8.68-51.25-43-91.31-63.3-91.31-23.37 0-47.84 47.98-47.84 47.98s-24.47-47.98-47.84-47.98c-20.3 0-54.63 40.06-63.31 91.31l104.45 123.35 32.81 14.12c1.99-1.19 87.08-52.07 87.08-113.5C365.183 111.098 364.453 103.068 363.133 95.308z" class="colorea728c svgShape"></path><path fill="#f7b6ad" d="M236.243,419.178c-36.06-49.63,2.74-140.65,3.75-142.99l-18.23-30.69
			c-57.166-52.86-137.259-31.694-149.6,61.22c-23.1,46.56-18.88,99.15-2.46,111.08c18.91,13.74,66.9-10.7,66.9-10.7
			s-8.4,53.2,10.51,66.94c16.42,11.93,67.74-0.31,104.89-36.67C246.363,431.868,241.053,425.798,236.243,419.178z" class="colorf7b6ad svgShape"></path><path fill="#f48ca7" d="M164.283,100.768c-7.78-2.53-15.64-4.31-23.44-5.46c-51.43-7.57-100.12,12.68-106.39,31.99
			c-7.23,22.23,30.84,60.32,30.84,60.32s-53.19,8.45-60.41,30.68c-6.28,19.31,21.22,64.33,67.28,88.42
			c3.49-7.06,7.62-13.98,12.43-20.6c36.12-49.7,134.89-40.84,137.17-40.62l23.53-26.84
			C244.763,216.248,222.653,119.738,164.283,100.768z" class="colorf48ca7 svgShape"></path><path fill="#ea728c" d="M223.083,238.978c-0.67,2.08-1.12,4.27-1.32,6.52c-2.28-0.22-101.05-9.08-137.17,40.62
			c-4.81,6.62-8.94,13.54-12.43,20.6c-4.59-2.4-8.99-5.01-13.2-7.78C92.893,197.588,223.083,238.978,223.083,238.978z" class="colorea728c svgShape"></path><path fill="#dfa3a5" d="M252.003,437.368c-4.14,4.05-8.45,7.8-12.87,11.25c-79.1-49.81-4.92-175.72-4.92-175.72
			c1.79,1.31,3.73,2.41,5.78,3.29c-1.01,2.34-39.81,93.36-3.75,142.99C241.053,425.798,246.363,431.868,252.003,437.368z" class="colordfa3a5 svgShape"></path><path fill="#ba6a7e" d="M440.463,328.028h-0.01c-102.64,38.7-170.54-55.23-170.54-55.23c1.79-1.31,3.44-2.81,4.9-4.48
			c1.69,1.48,76.4,66.74,134.85,47.75c7.78-2.53,15.18-5.7,22.16-9.36C435.313,313.728,438.173,320.888,440.463,328.028z" class="colorba6a7e svgShape"></path><path fill="#dfa3a5" d="M384.553,93.688c0.22,1.28,17.77,104.58-103.43,145.98c-0.72-2.44-1.75-4.75-3.02-6.89
			c1.99-1.19,87.08-52.07,87.08-113.5c0-8.18-0.73-16.21-2.05-23.97C370.363,94.238,377.543,93.728,384.553,93.688z" class="colordfa3a5 svgShape"></path><path fill="#ba6a7e" d="M251.993,217.908c-2.3,0-4.54,0.26-6.7,0.75c-0.53-2.41-22.64-98.92-81.01-117.89
			c-7.78-2.53-15.64-4.31-23.44-5.46c1.07-6.3,2.52-12.42,4.29-18.33C145.133,76.978,249.343,88.578,251.993,217.908z" class="colorba6a7e svgShape"></path><path fill="#d14b62" d="M332.263 234.488c1.63 4.99-1.11 10.36-6.1 11.98-5 1.62-10.36-1.11-11.98-6.11-1.63-4.99 1.11-10.35 6.1-11.98C325.283 226.758 330.643 229.488 332.263 234.488zM292.023 307.088c3.09 4.24 2.15 10.19-2.1 13.28-4.25 3.08-10.19 2.14-13.28-2.11-3.09-4.24-2.15-10.19 2.1-13.28.17-.12.34-.24.52-.35C283.463 301.978 289.063 303.008 292.023 307.088zM263.043 186.678c-4.96-.33-8.88-4.45-8.88-9.49 0-5.25 4.26-9.51 9.51-9.51s9.51 4.26 9.51 9.51-4.26 9.51-9.51 9.51C263.463 186.698 263.253 186.688 263.043 186.678zM206.843 291.628c3.82 3.19 4.57 8.82 1.6 12.9-3.09 4.25-9.03 5.19-13.28 2.1-4.25-3.08-5.19-9.03-2.11-13.28 3.09-4.25 9.04-5.19 13.29-2.1C206.513 291.368 206.683 291.498 206.843 291.628zM190.923 206.158c4.99 1.63 7.73 6.99 6.1 11.98-.06.2-.14.4-.21.59-1.84 4.62-6.97 7.08-11.77 5.52-4.99-1.62-7.73-6.99-6.1-11.98C180.563 207.268 185.923 204.538 190.923 206.158zM239.993 276.188c-3.5-1.5-6.66-3.65-9.33-6.28-3.44-3.4-6.07-7.61-7.58-12.32-.95-2.93-1.46-6.06-1.46-9.3 0-.94.04-1.87.14-2.79.34-3.86 1.41-7.52 3.07-10.82 4.02-8.02 11.49-14.01 20.46-16.02 2.16-.49 4.4-.75 6.7-.75 1.55 0 3.06.12 4.55.34 4.95.74 9.5 2.68 13.37 5.52 3.3 2.4 6.1 5.47 8.19 9.01 2.71 4.54 4.26 9.84 4.26 15.51 0 3.3-.53 6.48-1.51 9.46-1.29 3.94-3.36 7.53-6.04 10.57-5.56 6.34-13.72 10.34-22.82 10.34-.03 0-.06 0-.09 0C247.673 278.648 243.643 277.768 239.993 276.188z" class="colord14b62 svgShape"></path><path fill="#3a322b" d="M66.879,308.4c-10.727,23.003-13.748,44.44-14.516,57.017c-1.613,26.416,4.129,47.725,14.985,55.612
		c16.5,11.989,49.721-0.622,64.35-7.172c-1.709,15.938-3.437,51.429,13.063,63.417c4.796,3.485,11.839,5.197,20.311,5.197
		c23.865,0,59.023-13.61,86.899-39.548c18.56,17.305,38.01,26.802,49.733,31.418c13.731,5.407,26.657,8.148,37.29,8.148
		c8.436,0,15.428-1.726,20.231-5.215c16.5-11.988,14.773-47.479,13.063-63.417c10.247,4.588,29.61,12.15,45.965,12.148
		c6.994,0,13.442-1.385,18.385-4.976c18.306-13.3,22.21-65.794,0.458-112.576c22.195-12.304,37.238-27.869,45.251-37.591
		c16.831-20.422,24.711-41.037,20.564-53.799c-6.302-19.397-40.59-28.722-56.276-32.021c10.751-11.889,33.009-39.586,26.707-58.984
		c-6.992-21.52-55.71-41.454-106.924-35.223c-4.843-24.911-14.998-44.027-21.768-54.653C330.427,13.864,313.256,0,299.837,0
		c-20.396,0-39.859,29.728-47.844,43.626C244.008,29.728,224.544,0,204.149,0c-22.628,0-56.642,40.173-66.541,90.807
		c-25.188-3.091-46.507,0.659-58.704,3.814c-25.621,6.629-44.113,18.675-48.259,31.437c-6.303,19.398,15.956,47.096,26.707,58.984
		c-15.686,3.299-49.974,12.624-56.276,32.021C-5.917,238.583,21.784,283.339,66.879,308.4z M149.464,470.802
		c-13.869-10.077-11.132-48.948-8.907-63.076c0.234-1.484-0.385-2.975-1.601-3.858c-1.216-0.884-2.825-1.011-4.164-0.33
		c-12.749,6.481-48.873,21.097-62.742,11.02c-6.993-5.081-13.324-22.095-11.703-48.653c0.986-16.148,5.868-47.682,27.484-77.435
		c30.856-42.467,111.417-40.34,129.811-39.26c0.051,1.906,0.254,3.773,0.604,5.59c-47.325,13.875-80.75,47.375-96.788,97.125
		c-0.678,2.103,0.477,4.356,2.58,5.034c0.408,0.131,0.822,0.194,1.229,0.194c1.689,0,3.26-1.079,3.806-2.774
		c15.202-47.158,46.839-78.876,91.602-91.953c1.112,2.453,2.502,4.753,4.133,6.859c-6.563,5.045-12.843,10.827-18.745,17.245
		c-5.666-2.426-12.468-0.722-16.24,4.47c-3.553,4.89-3.339,11.386,0.088,16.001c-7.234,10.59-13.872,22.378-20.219,35.958
		c-0.936,2.001-0.072,4.382,1.93,5.317c0.548,0.256,1.124,0.377,1.691,0.377c1.505,0,2.947-0.854,3.626-2.307
		c6.123-13.098,12.505-24.454,19.44-34.633c1.418,0.484,2.889,0.73,4.355,0.73c4.181,0,8.307-1.93,10.947-5.563
		c3.343-4.602,3.342-10.621,0.475-15.161c5.763-6.241,11.897-11.831,18.297-16.674c1.393,1.124,2.876,2.138,4.436,3.037
		c-3.029,7.637-10.055,26.777-14.391,49.985c-7.413,39.673-3.085,71.993,12.515,93.465c4.212,5.798,8.671,11.039,13.241,15.776
		C210.202,470.689,163.232,480.804,149.464,470.802z M251.993,221.911c14.543,0,26.374,11.832,26.374,26.375
		c0,14.542-11.832,26.374-26.374,26.374c-14.543,0-26.375-11.832-26.375-26.374C225.618,233.742,237.45,221.911,251.993,221.911z
		 M197.512,303.397c-2.457-1.786-3.004-5.237-1.219-7.695c1.077-1.481,2.759-2.269,4.464-2.269c1.123,0,2.255,0.341,3.231,1.05
		c2.458,1.785,3.004,5.237,1.219,7.694C203.423,304.636,199.97,305.182,197.512,303.397z M431.936,414.558
		c-13.869,10.076-49.992-4.539-62.742-11.02c-1.34-0.682-2.948-0.554-4.165,0.33c-1.216,0.884-1.834,2.375-1.6,3.859
		c2.231,14.123,4.98,52.985-8.907,63.075c-6.993,5.081-25.13,5.844-49.888-3.905c-15.053-5.928-43.535-20.315-65.151-50.067
		c-30.852-42.464-3.942-118.413,2.772-135.584c1.78,0.527,3.619,0.911,5.506,1.144c-1.43,49.298,20.102,91.441,62.462,122.069
		c0.708,0.512,1.528,0.759,2.34,0.759c1.24,0,2.463-0.575,3.245-1.657c1.294-1.79,0.892-4.291-0.898-5.585
		c-40.15-29.03-60.54-68.917-59.147-115.526c2.709-0.297,5.324-0.909,7.808-1.801c2.77,7.795,6.326,15.549,10.602,23.139
		c-4.057,4.639-4.539,11.634-0.768,16.827h0c2.64,3.634,6.765,5.563,10.946,5.563c1.445,0,2.895-0.237,4.295-0.708
		c7.838,10.155,16.999,20.112,27.955,30.347c0.771,0.721,1.751,1.077,2.729,1.077c1.069,0,2.136-0.426,2.924-1.27
		c1.508-1.614,1.422-4.145-0.192-5.653c-10.561-9.867-19.387-19.443-26.923-29.181c1.312-1.742,2.187-3.788,2.537-6.003
		c0.564-3.564-0.293-7.134-2.414-10.053c-3.344-4.602-9.068-6.461-14.272-5.137c-4.154-7.408-7.574-14.968-10.203-22.551
		c1.504-0.986,2.929-2.081,4.257-3.283c6.327,5.24,22.359,17.838,43.092,29.134c25.045,13.646,48.409,20.58,68.869,20.58
		c8.493,0,16.485-1.195,23.889-3.601c6.817-2.215,13.181-4.837,19.099-7.72C450.604,356.754,445.705,404.553,431.936,414.558z
		 M289.775,313.535c-0.23,1.453-1.012,2.729-2.203,3.595c-2.457,1.785-5.909,1.238-7.695-1.219
		c-1.785-2.458-1.238-5.909,1.219-7.694c2.455-1.785,5.908-1.24,7.695,1.218C289.655,310.625,290.005,312.081,289.775,313.535z
		 M465.733,128.53c5.298,16.305-19.764,46.144-29.868,56.266c-1.062,1.063-1.438,2.633-0.973,4.063
		c0.464,1.429,1.691,2.478,3.175,2.714c14.124,2.25,51.938,11.659,57.236,27.963c2.671,8.221-2.208,25.707-19.129,46.239
		c-10.29,12.485-32.773,35.127-67.75,46.491c-49.929,16.224-113.862-32.863-128.101-44.541c1.059-1.538,1.994-3.166,2.795-4.87
		c16.1,5.753,32.229,8.618,48.199,8.618c30.098,0,59.616-10.169,87.199-30.307c1.784-1.302,2.175-3.805,0.872-5.589
		c-1.302-1.784-3.804-2.176-5.589-0.872c-40.015,29.212-84.247,36.28-128.144,20.554c0.466-2.253,0.712-4.585,0.712-6.973
		c0-0.339-0.016-0.673-0.026-1.009c8.271-0.225,16.747-1.211,25.288-2.933c1.29,2.17,3.157,3.943,5.46,5.117
		c1.928,0.982,4.016,1.479,6.118,1.479c1.404,0,2.815-0.222,4.188-0.668c3.432-1.115,6.224-3.5,7.862-6.714
		c1.008-1.978,1.5-4.125,1.473-6.283c12.077-4.315,24.375-9.951,37.492-17.206c1.933-1.069,2.633-3.503,1.564-5.437
		c-1.069-1.934-3.502-2.634-5.437-1.564c-12.65,6.997-24.487,12.432-36.078,16.591c-3.321-4.721-9.456-6.956-15.227-5.081
		c-5.409,1.758-8.946,6.628-9.295,11.986c-8.324,1.662-16.57,2.584-24.585,2.737c-0.474-1.749-1.085-3.441-1.817-5.069
		c6.942-4.4,23.873-15.754,41.019-31.977c29.316-27.739,44.813-56.43,44.813-82.971c0-7.168-0.527-14.031-1.44-20.551
		C416.527,92.913,460.474,112.344,465.733,128.53z M321.521,232.185c0.561-0.182,1.136-0.272,1.708-0.272
		c0.857,0,1.709,0.203,2.495,0.604c1.311,0.668,2.283,1.806,2.738,3.206c0.455,1.399,0.337,2.892-0.331,4.203
		c-0.668,1.311-1.807,2.283-3.206,2.738h0c-1.398,0.455-2.891,0.337-4.203-0.331c-1.311-0.668-2.284-1.807-2.738-3.206
		C317.046,236.237,318.633,233.124,321.521,232.185z M204.149,8c17.144,0,37.777,33.056,44.281,45.793
		c0.684,1.338,2.06,2.181,3.563,2.181s2.879-0.842,3.563-2.181C262.06,41.056,282.694,8,299.837,8
		c8.644,0,23.767,10.043,38.065,32.482c8.694,13.644,23.28,42.024,23.28,78.801c0,52.503-66.451,98.142-81.951,108.069
		c-1.145-1.487-2.409-2.877-3.778-4.158c30.141-39.045,37.496-85.8,21.227-135.482c-0.688-2.1-2.949-3.245-5.046-2.557
		c-2.1,0.688-3.244,2.947-2.557,5.046c15.42,47.09,8.468,91.348-20.063,128.239c-2.303-1.319-4.771-2.379-7.368-3.14
		c2.342-7.936,4.022-16.3,5.024-24.954c6.009-1.368,10.512-6.744,10.512-13.162c0-6.045-3.992-11.174-9.477-12.893
		c-0.372-12.82-1.931-26.259-4.778-40.976c-0.42-2.168-2.516-3.588-4.687-3.167c-2.169,0.419-3.587,2.518-3.167,4.687
		c2.745,14.192,4.257,27.129,4.63,39.439c-5.517,1.7-9.538,6.844-9.538,12.911c0,5.688,3.539,10.557,8.527,12.545
		c-0.993,8.428-2.667,16.548-4.995,24.225c-0.565-0.028-1.133-0.043-1.705-0.043c-1.243,0-2.469,0.07-3.678,0.199
		c-2.042-7.968-7.607-27.572-17.734-48.884c-17.322-36.453-39.821-60.057-65.063-68.258c-6.815-2.214-13.503-3.833-19.984-4.98
		C155.075,43.793,187.129,8,204.149,8z M263.674,171.676c3.038,0,5.509,2.471,5.509,5.509c0,3.037-2.471,5.508-5.509,5.508
		c-3.037,0-5.508-2.471-5.508-5.508C258.166,174.147,260.637,171.676,263.674,171.676z M8.684,219.535
		c5.298-16.304,43.112-25.713,57.236-27.963c1.484-0.236,2.71-1.285,3.175-2.714c0.465-1.429,0.089-2.999-0.973-4.063
		c-10.104-10.122-35.166-39.96-29.868-56.266c2.671-8.221,16.896-19.499,42.655-26.164c15.664-4.053,47.161-9.154,82.138,2.21
		c49.919,16.22,72.79,93.48,77.451,111.318c-1.78,0.634-3.492,1.409-5.124,2.314c-27.744-40.612-69.773-62.044-121.847-62.044
		c-0.144,0-0.294,0-0.438,0c-2.209,0.005-3.996,1.8-3.991,4.009c0.005,2.206,1.795,3.991,4,3.991c0.146-0.012,0.283,0,0.425,0
		c49.356,0,89.151,20.283,115.347,58.709c-1.977,1.8-3.74,3.829-5.255,6.042c-6.825-4.681-14.263-8.866-22.188-12.495
		c0.555-6.138-3.166-12.081-9.27-14.064h0c-3.433-1.117-7.092-0.827-10.308,0.811c-1.978,1.008-3.638,2.456-4.885,4.217
		c-12.304-3.607-25.566-6.277-40.445-8.118c-2.202-0.275-4.19,1.286-4.461,3.479c-0.271,2.192,1.286,4.189,3.479,4.461
		c14.349,1.775,27.119,4.336,38.939,7.784c-0.088,5.772,3.561,11.186,9.332,13.061c1.382,0.449,2.784,0.662,4.165,0.662
		c4.023,0,7.847-1.819,10.403-4.894c7.711,3.55,14.917,7.653,21.498,12.239c-0.636,1.665-1.15,3.388-1.522,5.165
		c-8.211-0.521-28.574-1.285-51.969,1.761c-40.022,5.209-69.422,19.313-85.023,40.785c-4.212,5.798-7.818,11.658-10.911,17.468
		C27.56,277.268,3.424,235.722,8.684,219.535z M193.221,216.906c-0.939,2.889-4.052,4.475-6.941,3.537
		c-2.889-0.939-4.476-4.053-3.537-6.941c0.455-1.399,1.427-2.538,2.738-3.206c0.786-0.4,1.638-0.603,2.495-0.603
		c0.572,0,1.148,0.09,1.708,0.272h0C192.573,210.903,194.16,214.017,193.221,216.906z" class="color3a322b svgShape"></path></svg></g></svg>